<?xml version="1.0" encoding="UTF-8" standalone="no"?>
<!DOCTYPE svg PUBLIC "-//W3C//DTD SVG 1.1//EN"
 "http://www.w3.org/Graphics/SVG/1.1/DTD/svg11.dtd">
<!-- Generated by graphviz version 2.40.1 (20161225.0304)
 -->
<!-- Title: G Pages: 1 -->
<svg width="700pt" height="920pt"
 viewBox="0.00 0.00 699.65 920.00" xmlns="http://www.w3.org/2000/svg" xmlns:xlink="http://www.w3.org/1999/xlink">
<g id="graph0" class="graph" transform="scale(1 1) rotate(0) translate(4 916)">
<title>G</title>
<polygon fill="#ffffff" stroke="transparent" points="-4,4 -4,-916 695.6475,-916 695.6475,4 -4,4"/>
<g id="clust1" class="cluster">
<title>cluster_Global</title>
<path fill="none" stroke="#c0c0c0" d="M205.4878,-44C205.4878,-44 671.6475,-44 671.6475,-44 677.6475,-44 683.6475,-50 683.6475,-56 683.6475,-56 683.6475,-892 683.6475,-892 683.6475,-898 677.6475,-904 671.6475,-904 671.6475,-904 205.4878,-904 205.4878,-904 199.4878,-904 193.4878,-898 193.4878,-892 193.4878,-892 193.4878,-56 193.4878,-56 193.4878,-50 199.4878,-44 205.4878,-44"/>
<text text-anchor="middle" x="438.5676" y="-891.2" font-family="Times,serif" font-size="11.00" fill="#c0c0c0">Global</text>
</g>
<g id="clust2" class="cluster">
<title>cluster_\PHPunk</title>
<path fill="none" stroke="#c0c0c0" d="M213.4878,-52C213.4878,-52 663.6475,-52 663.6475,-52 669.6475,-52 675.6475,-58 675.6475,-64 675.6475,-64 675.6475,-865 675.6475,-865 675.6475,-871 669.6475,-877 663.6475,-877 663.6475,-877 213.4878,-877 213.4878,-877 207.4878,-877 201.4878,-871 201.4878,-865 201.4878,-865 201.4878,-64 201.4878,-64 201.4878,-58 207.4878,-52 213.4878,-52"/>
<text text-anchor="middle" x="438.5676" y="-864.2" font-family="Times,serif" font-size="11.00" fill="#c0c0c0">PHPunk</text>
</g>
<g id="clust3" class="cluster">
<title>cluster_\PHPunk\Database</title>
<path fill="none" stroke="#c0c0c0" d="M421.8281,-509C421.8281,-509 655.6475,-509 655.6475,-509 661.6475,-509 667.6475,-515 667.6475,-521 667.6475,-521 667.6475,-838 667.6475,-838 667.6475,-844 661.6475,-850 655.6475,-850 655.6475,-850 421.8281,-850 421.8281,-850 415.8281,-850 409.8281,-844 409.8281,-838 409.8281,-838 409.8281,-521 409.8281,-521 409.8281,-515 415.8281,-509 421.8281,-509"/>
<text text-anchor="middle" x="538.7378" y="-837.2" font-family="Times,serif" font-size="11.00" fill="#c0c0c0">Database</text>
</g>
<g id="clust4" class="cluster">
<title>cluster_\PHPunk\Util</title>
<path fill="none" stroke="#c0c0c0" d="M221.4878,-268C221.4878,-268 485.134,-268 485.134,-268 491.134,-268 497.134,-274 497.134,-280 497.134,-280 497.134,-435 497.134,-435 497.134,-441 491.134,-447 485.134,-447 485.134,-447 221.4878,-447 221.4878,-447 215.4878,-447 209.4878,-441 209.4878,-435 209.4878,-435 209.4878,-280 209.4878,-280 209.4878,-274 215.4878,-268 221.4878,-268"/>
<text text-anchor="middle" x="353.3109" y="-434.2" font-family="Times,serif" font-size="11.00" fill="#c0c0c0">Util</text>
</g>
<g id="clust5" class="cluster">
<title>cluster_\PHPunk\Component</title>
<path fill="none" stroke="#c0c0c0" d="M575.0356,-214C575.0356,-214 649.0464,-214 649.0464,-214 655.0464,-214 661.0464,-220 661.0464,-226 661.0464,-226 661.0464,-489 661.0464,-489 661.0464,-495 655.0464,-501 649.0464,-501 649.0464,-501 575.0356,-501 575.0356,-501 569.0356,-501 563.0356,-495 563.0356,-489 563.0356,-489 563.0356,-226 563.0356,-226 563.0356,-220 569.0356,-214 575.0356,-214"/>
<text text-anchor="middle" x="612.041" y="-488.2" font-family="Times,serif" font-size="11.00" fill="#c0c0c0">Component</text>
</g>
<!-- \\PHPunk\\Database\\relation -->
<g id="node1" class="node">
<title>\\PHPunk\\Database\\relation</title>
<polygon fill="none" stroke="#000000" points="646.3499,-823 577.7322,-823 577.7322,-787 646.3499,-787 646.3499,-823"/>
<text text-anchor="middle" x="612.041" y="-801.7" font-family="Courier,monospace" font-size="11.00" fill="#000000">relation</text>
</g>
<!-- \\PHPunk\\Database\\record -->
<g id="node2" class="node">
<title>\\PHPunk\\Database\\record</title>
<polygon fill="none" stroke="#000000" points="639.6488,-715 584.4332,-715 584.4332,-679 639.6488,-679 639.6488,-715"/>
<text text-anchor="middle" x="612.041" y="-693.7" font-family="Courier,monospace" font-size="11.00" fill="#000000">record</text>
</g>
<!-- \\PHPunk\\Util\\object -->
<g id="node8" class="node">
<title>\\PHPunk\\Util\\object</title>
<polygon fill="none" stroke="#000000" points="472.4359,-420 417.2203,-420 417.2203,-384 472.4359,-384 472.4359,-420"/>
<text text-anchor="middle" x="444.8281" y="-398.7" font-family="Courier,monospace" font-size="11.00" fill="#000000">object</text>
</g>
<!-- \\PHPunk\\Database\\record&#45;&gt;\\PHPunk\\Util\\object -->
<g id="edge1" class="edge">
<title>\\PHPunk\\Database\\record&#45;&gt;\\PHPunk\\Util\\object</title>
<path fill="none" stroke="#000000" d="M584.1895,-686.6919C575.9042,-682.5364 567.3812,-677.029 561.134,-670 508.8812,-611.2079 529.2035,-576.8221 497.134,-505 485.4866,-478.9148 470.6071,-449.9696 459.6983,-429.423"/>
<polygon fill="none" stroke="#000000" points="462.643,-427.5074 454.8427,-420.3376 456.4694,-430.8069 462.643,-427.5074"/>
</g>
<!-- \\PHPunk\\Database\\bridge_table -->
<g id="node3" class="node">
<title>\\PHPunk\\Database\\bridge_table</title>
<polygon fill="none" stroke="#000000" points="659.7541,-769 564.3279,-769 564.3279,-733 659.7541,-733 659.7541,-769"/>
<text text-anchor="middle" x="612.041" y="-747.7" font-family="Courier,monospace" font-size="11.00" fill="#000000">bridge_table</text>
</g>
<!-- \\PHPunk\\Database\\table -->
<g id="node7" class="node">
<title>\\PHPunk\\Database\\table</title>
<polygon fill="none" stroke="#000000" points="471.8281,-769 417.8281,-769 417.8281,-733 471.8281,-733 471.8281,-769"/>
<text text-anchor="middle" x="444.8281" y="-747.7" font-family="Courier,monospace" font-size="11.00" fill="#000000">table</text>
</g>
<!-- \\PHPunk\\Database\\bridge_table&#45;&gt;\\PHPunk\\Database\\table -->
<g id="edge2" class="edge">
<title>\\PHPunk\\Database\\bridge_table&#45;&gt;\\PHPunk\\Database\\table</title>
<path fill="none" stroke="#000000" d="M564.1245,-751C538.0641,-751 506.3084,-751 482.1142,-751"/>
<polygon fill="none" stroke="#000000" points="481.9131,-747.5001 471.913,-751 481.913,-754.5001 481.9131,-747.5001"/>
</g>
<!-- \\PHPunk\\Database\\result -->
<g id="node4" class="node">
<title>\\PHPunk\\Database\\result</title>
<polygon fill="none" stroke="#000000" points="639.6488,-661 584.4332,-661 584.4332,-625 639.6488,-625 639.6488,-661"/>
<text text-anchor="middle" x="612.041" y="-639.7" font-family="Courier,monospace" font-size="11.00" fill="#000000">result</text>
</g>
<!-- \\PHPunk\\Database\\result&#45;&gt;\\PHPunk\\Util\\object -->
<g id="edge3" class="edge">
<title>\\PHPunk\\Database\\result&#45;&gt;\\PHPunk\\Util\\object</title>
<path fill="none" stroke="#000000" d="M584.1859,-631.9268C576.0895,-627.783 567.6751,-622.4749 561.134,-616 546.3922,-601.4073 485.9203,-483.4616 458.4814,-429.1719"/>
<polygon fill="none" stroke="#000000" points="461.5426,-427.469 453.9133,-420.1175 455.2929,-430.6222 461.5426,-427.469"/>
</g>
<!-- \\PHPunk\\Database\\schema -->
<g id="node5" class="node">
<title>\\PHPunk\\Database\\schema</title>
<polygon fill="none" stroke="#000000" points="639.6488,-607 584.4332,-607 584.4332,-571 639.6488,-571 639.6488,-607"/>
<text text-anchor="middle" x="612.041" y="-585.7" font-family="Courier,monospace" font-size="11.00" fill="#000000">schema</text>
</g>
<!-- \\PHPunk\\Database\\query -->
<g id="node6" class="node">
<title>\\PHPunk\\Database\\query</title>
<polygon fill="none" stroke="#000000" points="639.041,-553 585.041,-553 585.041,-517 639.041,-517 639.041,-553"/>
<text text-anchor="middle" x="612.041" y="-531.7" font-family="Courier,monospace" font-size="11.00" fill="#000000">query</text>
</g>
<!-- \\PHPunk\\Util\\collection -->
<g id="node9" class="node">
<title>\\PHPunk\\Util\\collection</title>
<polygon fill="none" stroke="#000000" points="299.5039,-366 217.4824,-366 217.4824,-330 299.5039,-330 299.5039,-366"/>
<text text-anchor="middle" x="258.4931" y="-344.7" font-family="Courier,monospace" font-size="11.00" fill="#000000">collection</text>
</g>
<!-- \\PHPunk\\Util\\object&#45;&gt;\\PHPunk\\Util\\collection -->
<g id="edge4" class="edge">
<title>\\PHPunk\\Util\\object&#45;&gt;\\PHPunk\\Util\\collection</title>
<path fill="none" stroke="#000000" stroke-dasharray="1,5" d="M416.9319,-393.9157C388.6562,-385.7213 344.2613,-372.8557 309.6502,-362.8253"/>
<polygon fill="none" stroke="#000000" points="310.2905,-359.367 299.7114,-359.9451 308.342,-366.0903 310.2905,-359.367"/>
</g>
<!-- \\JsonSerializable -->
<g id="node21" class="node">
<title>\\JsonSerializable</title>
<ellipse fill="none" stroke="#000000" cx="258.4931" cy="-18" rx="70.0582" ry="18"/>
<text text-anchor="middle" x="258.4931" y="-13.8" font-family="Times,serif" font-size="14.00" fill="#c0c0c0">\JsonSerializable</text>
</g>
<!-- \\PHPunk\\Util\\object&#45;&gt;\\JsonSerializable -->
<g id="edge5" class="edge">
<title>\\PHPunk\\Util\\object&#45;&gt;\\JsonSerializable</title>
<path fill="none" stroke="#000000" stroke-dasharray="1,5" d="M416.9283,-388.7792C410.9377,-384.9728 405.0543,-380.369 400.5222,-375 313.9127,-272.3963 275.6931,-110.424 263.3135,-45.884"/>
<polygon fill="none" stroke="#000000" points="266.7518,-45.2295 261.4823,-36.0381 259.8698,-46.5095 266.7518,-45.2295"/>
</g>
<!-- \\ArrayAccess -->
<g id="node22" class="node">
<title>\\ArrayAccess</title>
<ellipse fill="none" stroke="#000000" cx="58.232" cy="-402" rx="58.465" ry="18"/>
<text text-anchor="middle" x="58.232" y="-397.8" font-family="Times,serif" font-size="14.00" fill="#c0c0c0">\ArrayAccess</text>
</g>
<!-- \\PHPunk\\Util\\collection&#45;&gt;\\ArrayAccess -->
<g id="edge8" class="edge">
<title>\\PHPunk\\Util\\collection&#45;&gt;\\ArrayAccess</title>
<path fill="none" stroke="#000000" d="M217.4841,-359.058C187.0989,-367.2513 145.3974,-378.496 112.2897,-387.4235"/>
<polygon fill="none" stroke="#000000" points="111.0567,-384.1308 102.3128,-390.1137 112.8792,-390.8895 111.0567,-384.1308"/>
</g>
<!-- \\Countable -->
<g id="node23" class="node">
<title>\\Countable</title>
<ellipse fill="none" stroke="#000000" cx="58.232" cy="-348" rx="48.8273" ry="18"/>
<text text-anchor="middle" x="58.232" y="-343.8" font-family="Times,serif" font-size="14.00" fill="#c0c0c0">\Countable</text>
</g>
<!-- \\PHPunk\\Util\\collection&#45;&gt;\\Countable -->
<g id="edge9" class="edge">
<title>\\PHPunk\\Util\\collection&#45;&gt;\\Countable</title>
<path fill="none" stroke="#000000" d="M217.4841,-348C188.6754,-348 149.6944,-348 117.5098,-348"/>
<polygon fill="none" stroke="#000000" points="117.3206,-344.5001 107.3205,-348 117.3205,-351.5001 117.3206,-344.5001"/>
</g>
<!-- \\Iterator -->
<g id="node24" class="node">
<title>\\Iterator</title>
<ellipse fill="none" stroke="#000000" cx="58.232" cy="-294" rx="38.6695" ry="18"/>
<text text-anchor="middle" x="58.232" y="-289.8" font-family="Times,serif" font-size="14.00" fill="#c0c0c0">\Iterator</text>
</g>
<!-- \\PHPunk\\Util\\collection&#45;&gt;\\Iterator -->
<g id="edge10" class="edge">
<title>\\PHPunk\\Util\\collection&#45;&gt;\\Iterator</title>
<path fill="none" stroke="#000000" d="M217.4841,-336.942C183.7392,-327.8428 136.0373,-314.98 101.6498,-305.7075"/>
<polygon fill="none" stroke="#000000" points="102.4482,-302.2978 91.8818,-303.0736 100.6257,-309.0565 102.4482,-302.2978"/>
</g>
<!-- \\PHPunk\\Util\\collectible -->
<g id="node10" class="node">
<title>\\PHPunk\\Util\\collectible</title>
<polygon fill="none" stroke="#000000" points="488.9408,-366 400.7155,-366 400.7155,-330 488.9408,-330 488.9408,-366"/>
<text text-anchor="middle" x="444.8281" y="-344.7" font-family="Courier,monospace" font-size="11.00" fill="#000000">collectible</text>
</g>
<!-- \\PHPunk\\Util\\mutable -->
<g id="node11" class="node">
<title>\\PHPunk\\Util\\mutable</title>
<polygon fill="none" stroke="#000000" points="476.036,-312 413.6203,-312 413.6203,-276 476.036,-276 476.036,-312"/>
<text text-anchor="middle" x="444.8281" y="-290.7" font-family="Courier,monospace" font-size="11.00" fill="#000000">mutable</text>
</g>
<!-- \\PHPunk\\Component\\controller -->
<g id="node12" class="node">
<title>\\PHPunk\\Component\\controller</title>
<polygon fill="none" stroke="#000000" points="653.0518,-474 571.0303,-474 571.0303,-438 653.0518,-438 653.0518,-474"/>
<text text-anchor="middle" x="612.041" y="-452.7" font-family="Courier,monospace" font-size="11.00" fill="#000000">controller</text>
</g>
<!-- \\PHPunk\\Component\\renderer -->
<g id="node13" class="node">
<title>\\PHPunk\\Component\\renderer</title>
<polygon fill="none" stroke="#000000" points="646.3499,-420 577.7322,-420 577.7322,-384 646.3499,-384 646.3499,-420"/>
<text text-anchor="middle" x="612.041" y="-398.7" font-family="Courier,monospace" font-size="11.00" fill="#000000">renderer</text>
</g>
<!-- \\PHPunk\\Component\\user -->
<g id="node14" class="node">
<title>\\PHPunk\\Component\\user</title>
<polygon fill="none" stroke="#000000" points="639.041,-366 585.041,-366 585.041,-330 639.041,-330 639.041,-366"/>
<text text-anchor="middle" x="612.041" y="-344.7" font-family="Courier,monospace" font-size="11.00" fill="#000000">user</text>
</g>
<!-- \\PHPunk\\Component\\model -->
<g id="node15" class="node">
<title>\\PHPunk\\Component\\model</title>
<polygon fill="none" stroke="#000000" points="639.041,-312 585.041,-312 585.041,-276 639.041,-276 639.041,-312"/>
<text text-anchor="middle" x="612.041" y="-290.7" font-family="Courier,monospace" font-size="11.00" fill="#000000">model</text>
</g>
<!-- \\PHPunk\\Component\\template -->
<g id="node16" class="node">
<title>\\PHPunk\\Component\\template</title>
<polygon fill="none" stroke="#000000" points="646.3499,-258 577.7322,-258 577.7322,-222 646.3499,-222 646.3499,-258"/>
<text text-anchor="middle" x="612.041" y="-236.7" font-family="Courier,monospace" font-size="11.00" fill="#000000">template</text>
</g>
<!-- \\PHPunk\\event_manager -->
<g id="node17" class="node">
<title>\\PHPunk\\event_manager</title>
<polygon fill="none" stroke="#000000" points="662.8551,-204 561.2269,-204 561.2269,-168 662.8551,-168 662.8551,-204"/>
<text text-anchor="middle" x="612.041" y="-182.7" font-family="Courier,monospace" font-size="11.00" fill="#000000">event_manager</text>
</g>
<!-- \\PHPunk\\cache -->
<g id="node18" class="node">
<title>\\PHPunk\\cache</title>
<polygon fill="none" stroke="#000000" points="639.041,-150 585.041,-150 585.041,-114 639.041,-114 639.041,-150"/>
<text text-anchor="middle" x="612.041" y="-128.7" font-family="Courier,monospace" font-size="11.00" fill="#000000">cache</text>
</g>
<!-- \\PHPunk\\url_schema -->
<g id="node19" class="node">
<title>\\PHPunk\\url_schema</title>
<polygon fill="none" stroke="#000000" points="653.0518,-96 571.0303,-96 571.0303,-60 653.0518,-60 653.0518,-96"/>
<text text-anchor="middle" x="612.041" y="-74.7" font-family="Courier,monospace" font-size="11.00" fill="#000000">url_schema</text>
</g>
<!-- \\PHPunk\\api_error -->
<g id="node20" class="node">
<title>\\PHPunk\\api_error</title>
<polygon fill="none" stroke="#000000" points="482.7389,-204 406.9173,-204 406.9173,-168 482.7389,-168 482.7389,-204"/>
<text text-anchor="middle" x="444.8281" y="-182.7" font-family="Courier,monospace" font-size="11.00" fill="#000000">api_error</text>
</g>
<!-- \\PHPunk\\api_error&#45;&gt;\\PHPunk\\Util\\collection -->
<g id="edge6" class="edge">
<title>\\PHPunk\\api_error&#45;&gt;\\PHPunk\\Util\\collection</title>
<path fill="none" stroke="#000000" stroke-dasharray="1,5" d="M423.8153,-204.2686C390.3159,-233.393 324.7486,-290.3974 287.0329,-323.1874"/>
<polygon fill="none" stroke="#000000" points="284.6794,-320.5957 279.4291,-329.7982 289.2722,-325.8784 284.6794,-320.5957"/>
</g>
<!-- \\PHPunk\\api_error&#45;&gt;\\JsonSerializable -->
<g id="edge7" class="edge">
<title>\\PHPunk\\api_error&#45;&gt;\\JsonSerializable</title>
<path fill="none" stroke="#000000" stroke-dasharray="1,5" d="M424.5323,-167.7012C390.8052,-137.2928 323.205,-76.3444 285.4933,-42.3434"/>
<polygon fill="none" stroke="#000000" points="287.6934,-39.6145 277.9226,-35.5177 283.006,-44.8134 287.6934,-39.6145"/>
</g>
</g>
</svg>
