<?xml version="1.0" encoding="UTF-8" standalone="no"?>
<!DOCTYPE svg PUBLIC "-//W3C//DTD SVG 1.1//EN"
 "http://www.w3.org/Graphics/SVG/1.1/DTD/svg11.dtd">
<!-- Generated by graphviz version 2.40.1 (20161225.0304)
 -->
<!-- Title: G Pages: 1 -->
<svg width="760pt" height="941pt"
 viewBox="0.00 0.00 759.56 941.00" xmlns="http://www.w3.org/2000/svg" xmlns:xlink="http://www.w3.org/1999/xlink">
<g id="graph0" class="graph" transform="scale(1 1) rotate(0) translate(4 937)">
<title>G</title>
<polygon fill="#ffffff" stroke="transparent" points="-4,4 -4,-937 755.5598,-937 755.5598,4 -4,4"/>
<g id="clust1" class="cluster">
<title>cluster_Global</title>
<path fill="none" stroke="#c0c0c0" d="M221.4878,-44C221.4878,-44 731.5598,-44 731.5598,-44 737.5598,-44 743.5598,-50 743.5598,-56 743.5598,-56 743.5598,-913 743.5598,-913 743.5598,-919 737.5598,-925 731.5598,-925 731.5598,-925 221.4878,-925 221.4878,-925 215.4878,-925 209.4878,-919 209.4878,-913 209.4878,-913 209.4878,-56 209.4878,-56 209.4878,-50 215.4878,-44 221.4878,-44"/>
<text text-anchor="middle" x="476.5238" y="-912.2" font-family="Times,serif" font-size="11.00" fill="#c0c0c0">Global</text>
</g>
<!-- \\object -->
<g id="node1" class="node">
<title>\\object</title>
<polygon fill="none" stroke="#000000" points="482.3376,-467 427.1219,-467 427.1219,-431 482.3376,-431 482.3376,-467"/>
<text text-anchor="middle" x="454.7297" y="-445.7" font-family="Courier,monospace" font-size="11.00" fill="#000000">object</text>
</g>
<!-- \\collection -->
<g id="node18" class="node">
<title>\\collection</title>
<polygon fill="none" stroke="#000000" points="299.5039,-278 217.4824,-278 217.4824,-242 299.5039,-242 299.5039,-278"/>
<text text-anchor="middle" x="258.4931" y="-256.7" font-family="Courier,monospace" font-size="11.00" fill="#000000">collection</text>
</g>
<!-- \\object&#45;&gt;\\collection -->
<g id="edge1" class="edge">
<title>\\object&#45;&gt;\\collection</title>
<path fill="none" stroke="#000000" stroke-dasharray="1,5" d="M435.9137,-430.8779C400.7492,-397.0101 324.9951,-324.0496 284.7955,-285.3324"/>
<polygon fill="none" stroke="#000000" points="286.8828,-282.4834 277.2522,-278.0672 282.0268,-287.5252 286.8828,-282.4834"/>
</g>
<!-- \\JsonSerializable -->
<g id="node21" class="node">
<title>\\JsonSerializable</title>
<ellipse fill="none" stroke="#000000" cx="258.4931" cy="-18" rx="70.0582" ry="18"/>
<text text-anchor="middle" x="258.4931" y="-13.8" font-family="Times,serif" font-size="14.00" fill="#c0c0c0">\JsonSerializable</text>
</g>
<!-- \\object&#45;&gt;\\JsonSerializable -->
<g id="edge2" class="edge">
<title>\\object&#45;&gt;\\JsonSerializable</title>
<path fill="none" stroke="#000000" stroke-dasharray="1,5" d="M449.4207,-430.9924C426.375,-352.9279 335.8353,-47.3504 328.5222,-40 326.6347,-38.1029 324.5856,-36.3689 322.4142,-34.7842"/>
<polygon fill="none" stroke="#000000" points="323.8796,-31.5794 313.5152,-29.3818 320.247,-37.5631 323.8796,-31.5794"/>
</g>
<!-- \\database_bridge_table -->
<g id="node2" class="node">
<title>\\database_bridge_table</title>
<polygon fill="none" stroke="#000000" points="735.3715,-898 581.1255,-898 581.1255,-862 735.3715,-862 735.3715,-898"/>
<text text-anchor="middle" x="658.2485" y="-876.7" font-family="Courier,monospace" font-size="11.00" fill="#000000">database_bridge_table</text>
</g>
<!-- \\database_table -->
<g id="node15" class="node">
<title>\\database_table</title>
<polygon fill="none" stroke="#000000" points="509.1456,-898 400.3139,-898 400.3139,-862 509.1456,-862 509.1456,-898"/>
<text text-anchor="middle" x="454.7297" y="-876.7" font-family="Courier,monospace" font-size="11.00" fill="#000000">database_table</text>
</g>
<!-- \\database_bridge_table&#45;&gt;\\database_table -->
<g id="edge3" class="edge">
<title>\\database_bridge_table&#45;&gt;\\database_table</title>
<path fill="none" stroke="#000000" d="M581.0166,-880C560.6203,-880 538.826,-880 519.184,-880"/>
<polygon fill="none" stroke="#000000" points="519.1275,-876.5001 509.1275,-880 519.1274,-883.5001 519.1275,-876.5001"/>
</g>
<!-- \\database_result -->
<g id="node3" class="node">
<title>\\database_result</title>
<polygon fill="none" stroke="#000000" points="715.7646,-844 600.7324,-844 600.7324,-808 715.7646,-808 715.7646,-844"/>
<text text-anchor="middle" x="658.2485" y="-822.7" font-family="Courier,monospace" font-size="11.00" fill="#000000">database_result</text>
</g>
<!-- \\database_result&#45;&gt;\\object -->
<g id="edge4" class="edge">
<title>\\database_result&#45;&gt;\\object</title>
<path fill="none" stroke="#000000" d="M600.3866,-812.3773C593.2319,-808.8849 586.4942,-804.5012 580.9372,-799 488.3171,-707.3093 463.2964,-542.7358 456.852,-477.1225"/>
<polygon fill="none" stroke="#000000" points="460.3331,-476.7552 455.94,-467.1141 453.362,-477.3905 460.3331,-476.7552"/>
</g>
<!-- \\database_record -->
<g id="node4" class="node">
<title>\\database_record</title>
<polygon fill="none" stroke="#000000" points="715.7646,-790 600.7324,-790 600.7324,-754 715.7646,-754 715.7646,-790"/>
<text text-anchor="middle" x="658.2485" y="-768.7" font-family="Courier,monospace" font-size="11.00" fill="#000000">database_record</text>
</g>
<!-- \\database_record&#45;&gt;\\object -->
<g id="edge5" class="edge">
<title>\\database_record&#45;&gt;\\object</title>
<path fill="none" stroke="#000000" d="M600.6721,-758.0805C593.4744,-754.6329 586.6486,-750.3407 580.9372,-745 500.6532,-669.9256 469.2262,-535.4039 458.9799,-477.1602"/>
<polygon fill="none" stroke="#000000" points="462.4157,-476.4854 457.3062,-467.204 455.5125,-477.6459 462.4157,-476.4854"/>
</g>
<!-- \\event_manager -->
<g id="node5" class="node">
<title>\\event_manager</title>
<polygon fill="none" stroke="#000000" points="709.0627,-736 607.4344,-736 607.4344,-700 709.0627,-700 709.0627,-736"/>
<text text-anchor="middle" x="658.2485" y="-714.7" font-family="Courier,monospace" font-size="11.00" fill="#000000">event_manager</text>
</g>
<!-- \\template_base -->
<g id="node6" class="node">
<title>\\template_base</title>
<polygon fill="none" stroke="#000000" points="709.0627,-682 607.4344,-682 607.4344,-646 709.0627,-646 709.0627,-682"/>
<text text-anchor="middle" x="658.2485" y="-660.7" font-family="Courier,monospace" font-size="11.00" fill="#000000">template_base</text>
</g>
<!-- \\api_error -->
<g id="node7" class="node">
<title>\\api_error</title>
<polygon fill="none" stroke="#000000" points="492.6405,-251 416.8189,-251 416.8189,-215 492.6405,-215 492.6405,-251"/>
<text text-anchor="middle" x="454.7297" y="-229.7" font-family="Courier,monospace" font-size="11.00" fill="#000000">api_error</text>
</g>
<!-- \\api_error&#45;&gt;\\collection -->
<g id="edge6" class="edge">
<title>\\api_error&#45;&gt;\\collection</title>
<path fill="none" stroke="#000000" stroke-dasharray="1,5" d="M416.8933,-238.2059C386.4114,-242.3999 343.2562,-248.3375 309.6866,-252.9563"/>
<polygon fill="none" stroke="#000000" points="309.0304,-249.5136 299.6009,-254.344 309.9846,-256.4482 309.0304,-249.5136"/>
</g>
<!-- \\api_error&#45;&gt;\\JsonSerializable -->
<g id="edge7" class="edge">
<title>\\api_error&#45;&gt;\\JsonSerializable</title>
<path fill="none" stroke="#000000" stroke-dasharray="1,5" d="M447.8461,-214.848C432.4507,-176.6843 391.5622,-87.7275 328.5222,-40 325.8806,-38 323.0531,-36.1793 320.105,-34.5222"/>
<polygon fill="none" stroke="#000000" points="321.4811,-31.2986 310.963,-30.0255 318.3915,-37.5799 321.4811,-31.2986"/>
</g>
<!-- \\database_schema -->
<g id="node8" class="node">
<title>\\database_schema</title>
<polygon fill="none" stroke="#000000" points="715.7646,-628 600.7324,-628 600.7324,-592 715.7646,-592 715.7646,-628"/>
<text text-anchor="middle" x="658.2485" y="-606.7" font-family="Courier,monospace" font-size="11.00" fill="#000000">database_schema</text>
</g>
<!-- \\database_query -->
<g id="node9" class="node">
<title>\\database_query</title>
<polygon fill="none" stroke="#000000" points="712.6644,-574 603.8327,-574 603.8327,-538 712.6644,-538 712.6644,-574"/>
<text text-anchor="middle" x="658.2485" y="-552.7" font-family="Courier,monospace" font-size="11.00" fill="#000000">database_query</text>
</g>
<!-- \\database_relation -->
<g id="node10" class="node">
<title>\\database_relation</title>
<polygon fill="none" stroke="#000000" points="722.467,-520 594.0301,-520 594.0301,-484 722.467,-484 722.467,-520"/>
<text text-anchor="middle" x="658.2485" y="-498.7" font-family="Courier,monospace" font-size="11.00" fill="#000000">database_relation</text>
</g>
<!-- \\user_base -->
<g id="node11" class="node">
<title>\\user_base</title>
<polygon fill="none" stroke="#000000" points="696.1593,-466 620.3377,-466 620.3377,-430 696.1593,-430 696.1593,-466"/>
<text text-anchor="middle" x="658.2485" y="-444.7" font-family="Courier,monospace" font-size="11.00" fill="#000000">user_base</text>
</g>
<!-- \\controller_base -->
<g id="node12" class="node">
<title>\\controller_base</title>
<polygon fill="none" stroke="#000000" points="715.7646,-412 600.7324,-412 600.7324,-376 715.7646,-376 715.7646,-412"/>
<text text-anchor="middle" x="658.2485" y="-390.7" font-family="Courier,monospace" font-size="11.00" fill="#000000">controller_base</text>
</g>
<!-- \\model_base -->
<g id="node13" class="node">
<title>\\model_base</title>
<polygon fill="none" stroke="#000000" points="699.2593,-358 617.2378,-358 617.2378,-322 699.2593,-322 699.2593,-358"/>
<text text-anchor="middle" x="658.2485" y="-336.7" font-family="Courier,monospace" font-size="11.00" fill="#000000">model_base</text>
</g>
<!-- \\renderer_base -->
<g id="node14" class="node">
<title>\\renderer_base</title>
<polygon fill="none" stroke="#000000" points="709.0627,-304 607.4344,-304 607.4344,-268 709.0627,-268 709.0627,-304"/>
<text text-anchor="middle" x="658.2485" y="-282.7" font-family="Courier,monospace" font-size="11.00" fill="#000000">renderer_base</text>
</g>
<!-- \\cache -->
<g id="node16" class="node">
<title>\\cache</title>
<polygon fill="none" stroke="#000000" points="685.2485,-250 631.2485,-250 631.2485,-214 685.2485,-214 685.2485,-250"/>
<text text-anchor="middle" x="658.2485" y="-228.7" font-family="Courier,monospace" font-size="11.00" fill="#000000">cache</text>
</g>
<!-- \\url_schema -->
<g id="node17" class="node">
<title>\\url_schema</title>
<polygon fill="none" stroke="#000000" points="699.2593,-196 617.2378,-196 617.2378,-160 699.2593,-160 699.2593,-196"/>
<text text-anchor="middle" x="658.2485" y="-174.7" font-family="Courier,monospace" font-size="11.00" fill="#000000">url_schema</text>
</g>
<!-- \\ArrayAccess -->
<g id="node22" class="node">
<title>\\ArrayAccess</title>
<ellipse fill="none" stroke="#000000" cx="58.232" cy="-314" rx="58.465" ry="18"/>
<text text-anchor="middle" x="58.232" y="-309.8" font-family="Times,serif" font-size="14.00" fill="#c0c0c0">\ArrayAccess</text>
</g>
<!-- \\collection&#45;&gt;\\ArrayAccess -->
<g id="edge8" class="edge">
<title>\\collection&#45;&gt;\\ArrayAccess</title>
<path fill="none" stroke="#000000" d="M217.4841,-271.058C187.0989,-279.2513 145.3974,-290.496 112.2897,-299.4235"/>
<polygon fill="none" stroke="#000000" points="111.0567,-296.1308 102.3128,-302.1137 112.8792,-302.8895 111.0567,-296.1308"/>
</g>
<!-- \\Countable -->
<g id="node23" class="node">
<title>\\Countable</title>
<ellipse fill="none" stroke="#000000" cx="58.232" cy="-260" rx="48.8273" ry="18"/>
<text text-anchor="middle" x="58.232" y="-255.8" font-family="Times,serif" font-size="14.00" fill="#c0c0c0">\Countable</text>
</g>
<!-- \\collection&#45;&gt;\\Countable -->
<g id="edge9" class="edge">
<title>\\collection&#45;&gt;\\Countable</title>
<path fill="none" stroke="#000000" d="M217.4841,-260C188.6754,-260 149.6944,-260 117.5098,-260"/>
<polygon fill="none" stroke="#000000" points="117.3206,-256.5001 107.3205,-260 117.3205,-263.5001 117.3206,-256.5001"/>
</g>
<!-- \\Iterator -->
<g id="node24" class="node">
<title>\\Iterator</title>
<ellipse fill="none" stroke="#000000" cx="58.232" cy="-206" rx="38.6695" ry="18"/>
<text text-anchor="middle" x="58.232" y="-201.8" font-family="Times,serif" font-size="14.00" fill="#c0c0c0">\Iterator</text>
</g>
<!-- \\collection&#45;&gt;\\Iterator -->
<g id="edge10" class="edge">
<title>\\collection&#45;&gt;\\Iterator</title>
<path fill="none" stroke="#000000" d="M217.4841,-248.942C183.7392,-239.8428 136.0373,-226.98 101.6498,-217.7075"/>
<polygon fill="none" stroke="#000000" points="102.4482,-214.2978 91.8818,-215.0736 100.6257,-221.0565 102.4482,-214.2978"/>
</g>
<!-- \\mutable -->
<g id="node19" class="node">
<title>\\mutable</title>
<polygon fill="none" stroke="#000000" points="689.4564,-142 627.0407,-142 627.0407,-106 689.4564,-106 689.4564,-142"/>
<text text-anchor="middle" x="658.2485" y="-120.7" font-family="Courier,monospace" font-size="11.00" fill="#000000">mutable</text>
</g>
<!-- \\collectible -->
<g id="node20" class="node">
<title>\\collectible</title>
<polygon fill="none" stroke="#000000" points="702.3612,-88 614.1359,-88 614.1359,-52 702.3612,-52 702.3612,-88"/>
<text text-anchor="middle" x="658.2485" y="-66.7" font-family="Courier,monospace" font-size="11.00" fill="#000000">collectible</text>
</g>
</g>
</svg>
