<?xml version="1.0" encoding="UTF-8" standalone="no"?>
<!DOCTYPE svg PUBLIC "-//W3C//DTD SVG 1.1//EN"
 "http://www.w3.org/Graphics/SVG/1.1/DTD/svg11.dtd">
<!-- Generated by graphviz version 2.40.1 (20161225.0304)
 -->
<!-- Title: G Pages: 1 -->
<svg width="700pt" height="999pt"
 viewBox="0.00 0.00 699.65 999.00" xmlns="http://www.w3.org/2000/svg" xmlns:xlink="http://www.w3.org/1999/xlink">
<g id="graph0" class="graph" transform="scale(1 1) rotate(0) translate(4 995)">
<title>G</title>
<polygon fill="#ffffff" stroke="transparent" points="-4,4 -4,-995 695.6475,-995 695.6475,4 -4,4"/>
<g id="clust1" class="cluster">
<title>cluster_Global</title>
<path fill="none" stroke="#c0c0c0" d="M205.4878,-44C205.4878,-44 671.6475,-44 671.6475,-44 677.6475,-44 683.6475,-50 683.6475,-56 683.6475,-56 683.6475,-971 683.6475,-971 683.6475,-977 677.6475,-983 671.6475,-983 671.6475,-983 205.4878,-983 205.4878,-983 199.4878,-983 193.4878,-977 193.4878,-971 193.4878,-971 193.4878,-56 193.4878,-56 193.4878,-50 199.4878,-44 205.4878,-44"/>
<text text-anchor="middle" x="438.5676" y="-970.2" font-family="Times,serif" font-size="11.00" fill="#c0c0c0">Global</text>
</g>
<g id="clust2" class="cluster">
<title>cluster_\PHPunk</title>
<path fill="none" stroke="#c0c0c0" d="M213.4878,-52C213.4878,-52 663.6475,-52 663.6475,-52 669.6475,-52 675.6475,-58 675.6475,-64 675.6475,-64 675.6475,-944 675.6475,-944 675.6475,-950 669.6475,-956 663.6475,-956 663.6475,-956 213.4878,-956 213.4878,-956 207.4878,-956 201.4878,-950 201.4878,-944 201.4878,-944 201.4878,-64 201.4878,-64 201.4878,-58 207.4878,-52 213.4878,-52"/>
<text text-anchor="middle" x="438.5676" y="-943.2" font-family="Times,serif" font-size="11.00" fill="#c0c0c0">PHPunk</text>
</g>
<g id="clust3" class="cluster">
<title>cluster_\PHPunk\Component</title>
<path fill="none" stroke="#c0c0c0" d="M575.0356,-642C575.0356,-642 649.0464,-642 649.0464,-642 655.0464,-642 661.0464,-648 661.0464,-654 661.0464,-654 661.0464,-917 661.0464,-917 661.0464,-923 655.0464,-929 649.0464,-929 649.0464,-929 575.0356,-929 575.0356,-929 569.0356,-929 563.0356,-923 563.0356,-917 563.0356,-917 563.0356,-654 563.0356,-654 563.0356,-648 569.0356,-642 575.0356,-642"/>
<text text-anchor="middle" x="612.041" y="-916.2" font-family="Times,serif" font-size="11.00" fill="#c0c0c0">Component</text>
</g>
<g id="clust4" class="cluster">
<title>cluster_\PHPunk\Database</title>
<path fill="none" stroke="#c0c0c0" d="M421.8281,-293C421.8281,-293 655.6475,-293 655.6475,-293 661.6475,-293 667.6475,-299 667.6475,-305 667.6475,-305 667.6475,-622 667.6475,-622 667.6475,-628 661.6475,-634 655.6475,-634 655.6475,-634 421.8281,-634 421.8281,-634 415.8281,-634 409.8281,-628 409.8281,-622 409.8281,-622 409.8281,-305 409.8281,-305 409.8281,-299 415.8281,-293 421.8281,-293"/>
<text text-anchor="middle" x="538.7378" y="-621.2" font-family="Times,serif" font-size="11.00" fill="#c0c0c0">Database</text>
</g>
<g id="clust5" class="cluster">
<title>cluster_\PHPunk\Util</title>
<path fill="none" stroke="#c0c0c0" d="M221.4878,-106C221.4878,-106 485.134,-106 485.134,-106 491.134,-106 497.134,-112 497.134,-118 497.134,-118 497.134,-273 497.134,-273 497.134,-279 491.134,-285 485.134,-285 485.134,-285 221.4878,-285 221.4878,-285 215.4878,-285 209.4878,-279 209.4878,-273 209.4878,-273 209.4878,-118 209.4878,-118 209.4878,-112 215.4878,-106 221.4878,-106"/>
<text text-anchor="middle" x="353.3109" y="-272.2" font-family="Times,serif" font-size="11.00" fill="#c0c0c0">Util</text>
</g>
<!-- \\PHPunk\\Component\\controller -->
<g id="node1" class="node">
<title>\\PHPunk\\Component\\controller</title>
<polygon fill="none" stroke="#000000" points="653.0518,-902 571.0303,-902 571.0303,-866 653.0518,-866 653.0518,-902"/>
<text text-anchor="middle" x="612.041" y="-880.7" font-family="Courier,monospace" font-size="11.00" fill="#000000">controller</text>
</g>
<!-- \\PHPunk\\Component\\user -->
<g id="node2" class="node">
<title>\\PHPunk\\Component\\user</title>
<polygon fill="none" stroke="#000000" points="639.041,-848 585.041,-848 585.041,-812 639.041,-812 639.041,-848"/>
<text text-anchor="middle" x="612.041" y="-826.7" font-family="Courier,monospace" font-size="11.00" fill="#000000">user</text>
</g>
<!-- \\PHPunk\\Component\\template -->
<g id="node3" class="node">
<title>\\PHPunk\\Component\\template</title>
<polygon fill="none" stroke="#000000" points="646.3499,-794 577.7322,-794 577.7322,-758 646.3499,-758 646.3499,-794"/>
<text text-anchor="middle" x="612.041" y="-772.7" font-family="Courier,monospace" font-size="11.00" fill="#000000">template</text>
</g>
<!-- \\PHPunk\\Component\\model -->
<g id="node4" class="node">
<title>\\PHPunk\\Component\\model</title>
<polygon fill="none" stroke="#000000" points="639.041,-740 585.041,-740 585.041,-704 639.041,-704 639.041,-740"/>
<text text-anchor="middle" x="612.041" y="-718.7" font-family="Courier,monospace" font-size="11.00" fill="#000000">model</text>
</g>
<!-- \\PHPunk\\Component\\renderer -->
<g id="node5" class="node">
<title>\\PHPunk\\Component\\renderer</title>
<polygon fill="none" stroke="#000000" points="646.3499,-686 577.7322,-686 577.7322,-650 646.3499,-650 646.3499,-686"/>
<text text-anchor="middle" x="612.041" y="-664.7" font-family="Courier,monospace" font-size="11.00" fill="#000000">renderer</text>
</g>
<!-- \\PHPunk\\Database\\bridge_table -->
<g id="node6" class="node">
<title>\\PHPunk\\Database\\bridge_table</title>
<polygon fill="none" stroke="#000000" points="659.7541,-607 564.3279,-607 564.3279,-571 659.7541,-571 659.7541,-607"/>
<text text-anchor="middle" x="612.041" y="-585.7" font-family="Courier,monospace" font-size="11.00" fill="#000000">bridge_table</text>
</g>
<!-- \\PHPunk\\Database\\table -->
<g id="node12" class="node">
<title>\\PHPunk\\Database\\table</title>
<polygon fill="none" stroke="#000000" points="471.8281,-607 417.8281,-607 417.8281,-571 471.8281,-571 471.8281,-607"/>
<text text-anchor="middle" x="444.8281" y="-585.7" font-family="Courier,monospace" font-size="11.00" fill="#000000">table</text>
</g>
<!-- \\PHPunk\\Database\\bridge_table&#45;&gt;\\PHPunk\\Database\\table -->
<g id="edge1" class="edge">
<title>\\PHPunk\\Database\\bridge_table&#45;&gt;\\PHPunk\\Database\\table</title>
<path fill="none" stroke="#000000" d="M564.1245,-589C538.0641,-589 506.3084,-589 482.1142,-589"/>
<polygon fill="none" stroke="#000000" points="481.9131,-585.5001 471.913,-589 481.913,-592.5001 481.9131,-585.5001"/>
</g>
<!-- \\PHPunk\\Database\\result -->
<g id="node7" class="node">
<title>\\PHPunk\\Database\\result</title>
<polygon fill="none" stroke="#000000" points="639.6488,-553 584.4332,-553 584.4332,-517 639.6488,-517 639.6488,-553"/>
<text text-anchor="middle" x="612.041" y="-531.7" font-family="Courier,monospace" font-size="11.00" fill="#000000">result</text>
</g>
<!-- \\PHPunk\\Util\\object -->
<g id="node13" class="node">
<title>\\PHPunk\\Util\\object</title>
<polygon fill="none" stroke="#000000" points="472.4359,-258 417.2203,-258 417.2203,-222 472.4359,-222 472.4359,-258"/>
<text text-anchor="middle" x="444.8281" y="-236.7" font-family="Courier,monospace" font-size="11.00" fill="#000000">object</text>
</g>
<!-- \\PHPunk\\Database\\result&#45;&gt;\\PHPunk\\Util\\object -->
<g id="edge2" class="edge">
<title>\\PHPunk\\Database\\result&#45;&gt;\\PHPunk\\Util\\object</title>
<path fill="none" stroke="#000000" d="M584.3508,-525.2678C575.8763,-521.1034 567.2008,-515.4452 561.134,-508 497.0779,-429.3891 550.2379,-375.3877 497.134,-289 491.7092,-280.1751 484.2812,-271.908 476.7266,-264.7692"/>
<polygon fill="none" stroke="#000000" points="478.9834,-262.0919 469.1992,-258.0275 474.3133,-267.3064 478.9834,-262.0919"/>
</g>
<!-- \\PHPunk\\Database\\record -->
<g id="node8" class="node">
<title>\\PHPunk\\Database\\record</title>
<polygon fill="none" stroke="#000000" points="639.6488,-499 584.4332,-499 584.4332,-463 639.6488,-463 639.6488,-499"/>
<text text-anchor="middle" x="612.041" y="-477.7" font-family="Courier,monospace" font-size="11.00" fill="#000000">record</text>
</g>
<!-- \\PHPunk\\Database\\record&#45;&gt;\\PHPunk\\Util\\object -->
<g id="edge3" class="edge">
<title>\\PHPunk\\Database\\record&#45;&gt;\\PHPunk\\Util\\object</title>
<path fill="none" stroke="#000000" d="M584.1895,-470.6919C575.9042,-466.5364 567.3812,-461.029 561.134,-454 508.8812,-395.2079 541.1577,-354.1827 497.134,-289 491.284,-280.3383 483.6415,-272.0852 476.0126,-264.9051"/>
<polygon fill="none" stroke="#000000" points="478.2308,-262.1927 468.4553,-258.1073 473.5495,-267.3971 478.2308,-262.1927"/>
</g>
<!-- \\PHPunk\\Database\\schema -->
<g id="node9" class="node">
<title>\\PHPunk\\Database\\schema</title>
<polygon fill="none" stroke="#000000" points="639.6488,-445 584.4332,-445 584.4332,-409 639.6488,-409 639.6488,-445"/>
<text text-anchor="middle" x="612.041" y="-423.7" font-family="Courier,monospace" font-size="11.00" fill="#000000">schema</text>
</g>
<!-- \\PHPunk\\Database\\query -->
<g id="node10" class="node">
<title>\\PHPunk\\Database\\query</title>
<polygon fill="none" stroke="#000000" points="639.041,-391 585.041,-391 585.041,-355 639.041,-355 639.041,-391"/>
<text text-anchor="middle" x="612.041" y="-369.7" font-family="Courier,monospace" font-size="11.00" fill="#000000">query</text>
</g>
<!-- \\PHPunk\\Database\\relation -->
<g id="node11" class="node">
<title>\\PHPunk\\Database\\relation</title>
<polygon fill="none" stroke="#000000" points="646.3499,-337 577.7322,-337 577.7322,-301 646.3499,-301 646.3499,-337"/>
<text text-anchor="middle" x="612.041" y="-315.7" font-family="Courier,monospace" font-size="11.00" fill="#000000">relation</text>
</g>
<!-- \\PHPunk\\Util\\collection -->
<g id="node14" class="node">
<title>\\PHPunk\\Util\\collection</title>
<polygon fill="none" stroke="#000000" points="299.5039,-204 217.4824,-204 217.4824,-168 299.5039,-168 299.5039,-204"/>
<text text-anchor="middle" x="258.4931" y="-182.7" font-family="Courier,monospace" font-size="11.00" fill="#000000">collection</text>
</g>
<!-- \\PHPunk\\Util\\object&#45;&gt;\\PHPunk\\Util\\collection -->
<g id="edge6" class="edge">
<title>\\PHPunk\\Util\\object&#45;&gt;\\PHPunk\\Util\\collection</title>
<path fill="none" stroke="#000000" stroke-dasharray="1,5" d="M416.9319,-231.9157C388.6562,-223.7213 344.2613,-210.8557 309.6502,-200.8253"/>
<polygon fill="none" stroke="#000000" points="310.2905,-197.367 299.7114,-197.9451 308.342,-204.0903 310.2905,-197.367"/>
</g>
<!-- \\JsonSerializable -->
<g id="node21" class="node">
<title>\\JsonSerializable</title>
<ellipse fill="none" stroke="#000000" cx="258.4931" cy="-18" rx="70.0582" ry="18"/>
<text text-anchor="middle" x="258.4931" y="-13.8" font-family="Times,serif" font-size="14.00" fill="#c0c0c0">\JsonSerializable</text>
</g>
<!-- \\PHPunk\\Util\\object&#45;&gt;\\JsonSerializable -->
<g id="edge7" class="edge">
<title>\\PHPunk\\Util\\object&#45;&gt;\\JsonSerializable</title>
<path fill="none" stroke="#000000" stroke-dasharray="1,5" d="M417.1982,-225.804C411.3295,-222.0906 405.4306,-217.7722 400.5222,-213 358.3618,-172.0088 363.4114,-149.3341 328.5222,-102 313.5167,-81.642 295.1671,-59.7276 281.0161,-43.3881"/>
<polygon fill="none" stroke="#000000" points="283.6496,-41.0828 274.4395,-35.846 278.3737,-45.6833 283.6496,-41.0828"/>
</g>
<!-- \\ArrayAccess -->
<g id="node22" class="node">
<title>\\ArrayAccess</title>
<ellipse fill="none" stroke="#000000" cx="58.232" cy="-240" rx="58.465" ry="18"/>
<text text-anchor="middle" x="58.232" y="-235.8" font-family="Times,serif" font-size="14.00" fill="#c0c0c0">\ArrayAccess</text>
</g>
<!-- \\PHPunk\\Util\\collection&#45;&gt;\\ArrayAccess -->
<g id="edge8" class="edge">
<title>\\PHPunk\\Util\\collection&#45;&gt;\\ArrayAccess</title>
<path fill="none" stroke="#000000" d="M217.4841,-197.058C187.0989,-205.2513 145.3974,-216.496 112.2897,-225.4235"/>
<polygon fill="none" stroke="#000000" points="111.0567,-222.1308 102.3128,-228.1137 112.8792,-228.8895 111.0567,-222.1308"/>
</g>
<!-- \\Countable -->
<g id="node23" class="node">
<title>\\Countable</title>
<ellipse fill="none" stroke="#000000" cx="58.232" cy="-186" rx="48.8273" ry="18"/>
<text text-anchor="middle" x="58.232" y="-181.8" font-family="Times,serif" font-size="14.00" fill="#c0c0c0">\Countable</text>
</g>
<!-- \\PHPunk\\Util\\collection&#45;&gt;\\Countable -->
<g id="edge9" class="edge">
<title>\\PHPunk\\Util\\collection&#45;&gt;\\Countable</title>
<path fill="none" stroke="#000000" d="M217.4841,-186C188.6754,-186 149.6944,-186 117.5098,-186"/>
<polygon fill="none" stroke="#000000" points="117.3206,-182.5001 107.3205,-186 117.3205,-189.5001 117.3206,-182.5001"/>
</g>
<!-- \\Iterator -->
<g id="node24" class="node">
<title>\\Iterator</title>
<ellipse fill="none" stroke="#000000" cx="58.232" cy="-132" rx="38.6695" ry="18"/>
<text text-anchor="middle" x="58.232" y="-127.8" font-family="Times,serif" font-size="14.00" fill="#c0c0c0">\Iterator</text>
</g>
<!-- \\PHPunk\\Util\\collection&#45;&gt;\\Iterator -->
<g id="edge10" class="edge">
<title>\\PHPunk\\Util\\collection&#45;&gt;\\Iterator</title>
<path fill="none" stroke="#000000" d="M217.4841,-174.942C183.7392,-165.8428 136.0373,-152.98 101.6498,-143.7075"/>
<polygon fill="none" stroke="#000000" points="102.4482,-140.2978 91.8818,-141.0736 100.6257,-147.0565 102.4482,-140.2978"/>
</g>
<!-- \\PHPunk\\Util\\collectible -->
<g id="node15" class="node">
<title>\\PHPunk\\Util\\collectible</title>
<polygon fill="none" stroke="#000000" points="488.9408,-204 400.7155,-204 400.7155,-168 488.9408,-168 488.9408,-204"/>
<text text-anchor="middle" x="444.8281" y="-182.7" font-family="Courier,monospace" font-size="11.00" fill="#000000">collectible</text>
</g>
<!-- \\PHPunk\\Util\\mutable -->
<g id="node16" class="node">
<title>\\PHPunk\\Util\\mutable</title>
<polygon fill="none" stroke="#000000" points="476.036,-150 413.6203,-150 413.6203,-114 476.036,-114 476.036,-150"/>
<text text-anchor="middle" x="444.8281" y="-128.7" font-family="Courier,monospace" font-size="11.00" fill="#000000">mutable</text>
</g>
<!-- \\PHPunk\\event_manager -->
<g id="node17" class="node">
<title>\\PHPunk\\event_manager</title>
<polygon fill="none" stroke="#000000" points="662.8551,-273 561.2269,-273 561.2269,-237 662.8551,-237 662.8551,-273"/>
<text text-anchor="middle" x="612.041" y="-251.7" font-family="Courier,monospace" font-size="11.00" fill="#000000">event_manager</text>
</g>
<!-- \\PHPunk\\api_error -->
<g id="node18" class="node">
<title>\\PHPunk\\api_error</title>
<polygon fill="none" stroke="#000000" points="482.7389,-96 406.9173,-96 406.9173,-60 482.7389,-60 482.7389,-96"/>
<text text-anchor="middle" x="444.8281" y="-74.7" font-family="Courier,monospace" font-size="11.00" fill="#000000">api_error</text>
</g>
<!-- \\PHPunk\\api_error&#45;&gt;\\PHPunk\\Util\\collection -->
<g id="edge4" class="edge">
<title>\\PHPunk\\api_error&#45;&gt;\\PHPunk\\Util\\collection</title>
<path fill="none" stroke="#000000" stroke-dasharray="1,5" d="M410.8897,-96.2145C407.3784,-98.1496 403.8716,-100.1033 400.5222,-102 365.2072,-121.9986 325.4831,-145.5874 297.0446,-162.6684"/>
<polygon fill="none" stroke="#000000" points="294.9923,-159.8185 288.2278,-167.9727 298.6009,-165.8167 294.9923,-159.8185"/>
</g>
<!-- \\PHPunk\\api_error&#45;&gt;\\JsonSerializable -->
<g id="edge5" class="edge">
<title>\\PHPunk\\api_error&#45;&gt;\\JsonSerializable</title>
<path fill="none" stroke="#000000" stroke-dasharray="1,5" d="M407.1205,-65.8581C379.7724,-57.052 342.4006,-45.0183 311.9739,-35.2209"/>
<polygon fill="none" stroke="#000000" points="312.9522,-31.8589 302.3607,-32.1254 310.8066,-38.522 312.9522,-31.8589"/>
</g>
<!-- \\PHPunk\\cache -->
<g id="node19" class="node">
<title>\\PHPunk\\cache</title>
<polygon fill="none" stroke="#000000" points="639.041,-209 585.041,-209 585.041,-173 639.041,-173 639.041,-209"/>
<text text-anchor="middle" x="612.041" y="-187.7" font-family="Courier,monospace" font-size="11.00" fill="#000000">cache</text>
</g>
<!-- \\PHPunk\\url_schema -->
<g id="node20" class="node">
<title>\\PHPunk\\url_schema</title>
<polygon fill="none" stroke="#000000" points="653.0518,-135 571.0303,-135 571.0303,-99 653.0518,-99 653.0518,-135"/>
<text text-anchor="middle" x="612.041" y="-113.7" font-family="Courier,monospace" font-size="11.00" fill="#000000">url_schema</text>
</g>
</g>
</svg>
